<?xml version="1.0" standalone="no"?>
<!DOCTYPE svg PUBLIC "-//W3C//DTD SVG 20010904//EN"
 "http://www.w3.org/TR/2001/REC-SVG-20010904/DTD/svg10.dtd">
<svg version="1.0" xmlns="http://www.w3.org/2000/svg"
 width="941.000000pt" height="941.000000pt" viewBox="0 0 941.000000 941.000000"
 preserveAspectRatio="xMidYMid meet">
<metadata>
Created by potrace 1.14, written by Peter Selinger 2001-2017
</metadata>
<g transform="translate(0.000000,941.000000) scale(0.100000,-0.100000)"
fill="#000000" stroke="none">
<path d="M2615 9400 c-76 -17 -127 -65 -127 -117 0 -52 103 -114 299 -179 163
-54 229 -90 304 -165 71 -70 124 -163 156 -274 17 -56 18 -174 23 -1711 l5
-1652 355 300 c195 164 371 312 391 329 35 28 127 149 114 149 -3 0 -1 9 5 21
8 15 11 417 12 1425 l0 1404 21 1 c12 0 31 2 42 5 81 16 335 21 470 10 532
-44 1027 -302 1348 -703 73 -91 89 -121 140 -268 l35 -100 -517 0 c-468 0
-521 -1 -570 -17 -179 -59 -287 -223 -275 -419 9 -164 110 -302 263 -360 55
-20 69 -21 579 -21 290 0 522 -4 522 -9 0 -29 -87 -215 -143 -304 -77 -124
-220 -283 -350 -390 -27 -22 -54 -45 -61 -51 -6 -6 -52 -38 -101 -71 -174
-118 -285 -173 -490 -241 -403 -134 -830 -339 -1185 -570 -299 -194 -715 -644
-938 -1015 -144 -239 -279 -567 -327 -795 -17 -77 -45 -246 -52 -312 -15 -139
-8 -503 13 -625 2 -16 7 -46 10 -65 10 -62 44 -224 55 -256 5 -17 12 -41 14
-53 8 -42 66 -213 106 -314 82 -206 229 -473 319 -581 212 -254 346 -389 570
-580 89 -75 361 -266 380 -266 5 0 10 -4 10 -10 0 -5 5 -10 11 -10 6 0 23 -9
38 -19 57 -41 342 -181 476 -234 201 -80 476 -163 628 -191 88 -16 145 -27
167 -31 14 -3 44 -8 66 -11 23 -2 50 -6 60 -8 11 -2 51 -7 89 -11 39 -4 80 -8
93 -10 135 -21 598 -21 822 0 72 7 164 17 180 20 8 2 44 6 80 10 36 4 67 8 70
10 3 2 26 6 50 10 172 25 483 112 630 178 19 9 62 28 95 43 280 125 492 251
695 415 438 353 728 817 850 1364 16 70 17 74 25 135 4 30 9 64 11 75 14 75
23 370 11 382 -4 3 -7 -12 -7 -35 0 -23 -1 -44 -2 -47 -1 -5 -14 -80 -24 -140
-16 -100 -106 -418 -161 -570 -31 -86 -118 -254 -169 -326 -288 -413 -807
-733 -1519 -938 -194 -56 -257 -64 -465 -57 -107 3 -206 8 -220 10 -14 2 -59
7 -100 11 -41 4 -86 8 -100 10 -14 2 -45 6 -70 9 -78 9 -122 17 -250 42 -746
148 -1329 488 -1719 1004 -128 170 -217 323 -326 564 -79 175 -161 476 -195
713 -68 479 21 1007 244 1453 63 126 64 127 147 255 228 348 546 643 964 892
235 140 552 279 815 357 47 14 117 34 156 46 90 26 332 144 437 213 352 230
552 547 628 997 24 137 17 504 -12 654 -5 28 -12 65 -15 81 -10 58 -44 182
-60 221 -20 48 -80 172 -97 199 -205 335 -488 572 -902 759 -260 117 -648 227
-960 272 -22 3 -51 7 -65 10 -14 2 -52 6 -85 10 -33 3 -65 7 -71 9 -7 2 -54 6
-105 10 -52 4 -105 9 -119 12 -14 2 -185 6 -380 8 -354 4 -702 10 -1090 20
-370 10 -644 12 -675 5z"/>
<path d="M750 8769 c-195 -31 -362 -155 -463 -346 -30 -56 -59 -134 -53 -140
2 -2 39 5 81 16 122 32 159 36 330 35 143 -1 170 -4 249 -28 343 -103 616
-369 911 -886 134 -236 301 -476 432 -619 110 -122 266 -222 428 -274 114 -36
153 -43 313 -52 l92 -6 0 1029 0 1029 -255 0 c-173 0 -255 -4 -258 -11 -2 -6
-3 -269 -3 -584 1 -314 -2 -572 -5 -572 -8 0 -84 82 -134 145 -22 28 -42 52
-45 55 -3 3 -23 32 -45 65 -22 33 -42 62 -45 65 -3 3 -30 43 -60 90 -60 94
-182 267 -208 297 -9 10 -42 48 -72 83 -114 137 -277 282 -420 377 -160 107
-401 208 -544 229 -58 9 -181 11 -226 3z"/>
<path d="M209 7695 c-1 0 -2 -467 -3 -1037 l-1 -1038 30 -1 c46 0 404 0 451 0
l42 1 0 580 c1 319 3 584 6 589 3 5 14 11 25 14 16 4 36 -22 117 -152 249
-400 405 -611 578 -783 236 -236 459 -374 751 -465 101 -32 259 -39 354 -17
184 43 339 147 426 284 30 47 77 179 68 193 -3 5 -17 5 -32 2 -123 -27 -488
-41 -567 -22 -131 32 -169 44 -230 72 -106 48 -188 108 -295 214 -144 143
-211 237 -531 746 -196 312 -281 428 -381 521 -220 204 -475 299 -808 299z"/>
<path d="M6492 5328 c-35 -170 -100 -323 -204 -478 -35 -52 -75 -108 -88 -124
-105 -125 -220 -246 -525 -551 -434 -434 -495 -507 -596 -720 -47 -99 -92
-246 -104 -337 -6 -42 -4 -48 12 -48 10 -1 79 -3 153 -5 74 -3 224 -7 332 -9
l197 -5 -3 53 c-6 138 64 304 202 475 20 24 95 103 167 175 175 174 261 303
321 483 32 95 32 96 48 206 7 49 13 134 12 188 -1 54 1 99 4 99 14 -1 513
-687 583 -802 111 -183 133 -220 186 -323 149 -285 180 -473 113 -677 -11 -32
-17 -59 -15 -62 2 -2 28 9 57 25 102 55 260 99 340 94 52 -3 110 -29 130 -59
14 -22 12 -24 -62 -74 -65 -43 -166 -127 -457 -379 -22 -19 -68 -60 -103 -91
-122 -108 -198 -163 -287 -207 -81 -40 -220 -87 -297 -100 -124 -22 -238 -25
-343 -10 -28 4 -63 9 -79 11 -56 8 -191 47 -276 81 -127 51 -230 110 -479 276
-124 83 -242 157 -261 165 -38 15 -137 25 -144 13 -8 -12 78 -193 125 -264
130 -196 306 -343 554 -462 255 -122 479 -171 770 -169 118 1 166 4 290 20
403 51 755 243 1005 549 55 68 130 171 130 179 0 2 16 33 36 68 36 63 88 204
98 266 4 17 9 47 12 65 10 52 7 207 -6 277 -33 191 -149 436 -289 610 -20 24
-45 56 -56 69 -11 14 -162 167 -335 341 -285 286 -413 419 -496 520 -192 230
-291 429 -333 665 l-16 95 -23 -112z"/>
<path d="M6479 4550 c-3 -51 -8 -90 -26 -195 -10 -60 -56 -192 -93 -266 -65
-133 -117 -201 -279 -368 -137 -141 -279 -316 -281 -344 0 -4 -8 -19 -17 -34
-10 -14 -18 -31 -20 -37 -1 -6 -9 -29 -17 -51 -20 -55 -25 -185 -8 -211 12
-20 293 -73 467 -88 138 -13 171 -16 235 -27 127 -21 261 -68 297 -105 43 -43
18 -122 -48 -148 -43 -17 -68 -19 -438 -30 -78 -3 -145 -7 -147 -9 -8 -8 75
-37 169 -58 109 -25 324 -30 451 -10 344 55 537 242 549 536 8 170 -26 271
-191 575 -36 68 -191 321 -201 330 -3 3 -32 43 -63 90 -97 146 -338 465 -339
450z m554 -1197 c84 -103 109 -211 72 -312 -14 -41 -63 -117 -70 -109 -1 2 3
38 10 80 11 73 11 99 1 178 -8 56 -23 98 -61 172 l-35 70 30 -26 c17 -14 41
-38 53 -53z"/>
</g>
</svg>
